HIERARCHY
ROOT hip
{
  OFFSET 0 0 0
  CHANNELS 6 Xposition Yposition Zposition Zrotation Yrotation Xrotation
  JOINT abdomen
  {
    OFFSET 0 20.6881 -0.73152
    CHANNELS 3 Zrotation Xrotation Yrotation
    JOINT chest
    {
      OFFSET 0 11.7043 -0.48768
      CHANNELS 3 Zrotation Xrotation Yrotation
      JOINT neck
      {
        OFFSET 0 22.1894 -2.19456
        CHANNELS 3 Zrotation Xrotation Yrotation
        JOINT head
        {
          OFFSET -0.24384 7.07133 1.2192
          CHANNELS 3 Zrotation Xrotation Yrotation
          JOINT leftEye
          {
            OFFSET 4.14528 8.04674 8.04672
            CHANNELS 3 Zrotation Xrotation Yrotation
            End Site
            {
              OFFSET 1 0 0
            }
          }
          JOINT rightEye
          {
            OFFSET -3.6576 8.04674 8.04672
            CHANNELS 3 Zrotation Xrotation Yrotation
            End Site
            {
              OFFSET 1 0 0
            }
          }
        }
      }
      JOINT rCollar
      {
        OFFSET -2.68224 19.2634 -4.8768
        CHANNELS 3 Zrotation Xrotation Yrotation
        JOINT rShldr
        {
          OFFSET -8.77824 -1.95073 1.46304
          CHANNELS 3 Zrotation Xrotation Yrotation
          JOINT rForeArm
          {
            OFFSET -28.1742 -1.7115 0.48768
            CHANNELS 3 Zrotation Xrotation Yrotation
            JOINT rHand
            {
              OFFSET -22.5879 0.773209 7.07136
              CHANNELS 3 Zrotation Xrotation Yrotation
              JOINT rThumb1
              {
                OFFSET -1.2192 -0.487915 3.41376
                CHANNELS 3 Zrotation Xrotation Yrotation
                JOINT rThumb2
                {
                  OFFSET -3.37035 -0.52449 3.41376
                  CHANNELS 3 Zrotation Xrotation Yrotation
                  End Site
                  {
                    OFFSET -1.78271 -1.18214 1.43049
                  }
                }
              }
              JOINT rIndex1
              {
                OFFSET -7.75947 0.938293 5.60832
                CHANNELS 3 Zrotation Xrotation Yrotation
                JOINT rIndex2
                {
                  OFFSET -2.54057 -0.884171 1.56538
                  CHANNELS 3 Zrotation Xrotation Yrotation
                  End Site
                  {
                    OFFSET -1.62519 -0.234802 1.16502
                  }
                }
              }
              JOINT rMid1
              {
                OFFSET -8.24714 1.18213 3.41376
                CHANNELS 3 Zrotation Xrotation Yrotation
                JOINT rMid2
                {
                  OFFSET -3.10165 -0.590103 1.0647
                  CHANNELS 3 Zrotation Xrotation Yrotation
                  End Site
                  {
                    OFFSET -2.48547 -0.328903 0.83742
                  }
                }
              }
              JOINT rRing1
              {
                OFFSET -8.82822 0.546677 1.51678
                CHANNELS 3 Zrotation Xrotation Yrotation
                JOINT rRing2
                {
                  OFFSET -2.60934 -0.819778 -0.0198488
                  CHANNELS 3 Zrotation Xrotation Yrotation
                  End Site
                  {
                    OFFSET -2.33842 -0.294052 0.168128
                  }
                }
              }
              JOINT rPinky1
              {
                OFFSET -8.27202 -0.0477905 -0.4584
                CHANNELS 3 Zrotation Xrotation Yrotation
                JOINT rPinky2
                {
                  OFFSET -1.82734 -0.647385 -0.700984
                  CHANNELS 3 Zrotation Xrotation Yrotation
                  End Site
                  {
                    OFFSET -1.69225 -0.51767 -0.607171
                  }
                }
              }
            }
          }
        }
      }
      JOINT lCollar
      {
        OFFSET 2.68224 19.2634 -4.8768
        CHANNELS 3 Zrotation Xrotation Yrotation
        JOINT lShldr
        {
          OFFSET 8.77824 -1.95073 1.46304
          CHANNELS 3 Zrotation Xrotation Yrotation
          JOINT lForeArm
          {
            OFFSET 28.1742 -1.7115 0.48768
            CHANNELS 3 Zrotation Xrotation Yrotation
            JOINT lHand
            {
              OFFSET 22.5879 0.773209 7.07136
              CHANNELS 3 Zrotation Xrotation Yrotation
              JOINT lThumb1
              {
                OFFSET 1.2192 -0.487915 3.41376
                CHANNELS 3 Zrotation Xrotation Yrotation
                JOINT lThumb2
                {
                  OFFSET 3.37035 -0.52449 3.41376
                  CHANNELS 3 Zrotation Xrotation Yrotation
                  End Site
                  {
                    OFFSET 1.78271 -1.18214 1.43049
                  }
                }
              }
              JOINT lIndex1
              {
                OFFSET 7.75947 0.938293 5.60832
                CHANNELS 3 Zrotation Xrotation Yrotation
                JOINT lIndex2
                {
                  OFFSET 2.54057 -0.884171 1.56538
                  CHANNELS 3 Zrotation Xrotation Yrotation
                  End Site
                  {
                    OFFSET 1.62519 -0.234802 1.16502
                  }
                }
              }
              JOINT lMid1
              {
                OFFSET 8.24714 1.18213 3.41376
                CHANNELS 3 Zrotation Xrotation Yrotation
                JOINT lMid2
                {
                  OFFSET 3.10165 -0.590103 1.0647
                  CHANNELS 3 Zrotation Xrotation Yrotation
                  End Site
                  {
                    OFFSET 2.48547 -0.328903 0.83742
                  }
                }
              }
              JOINT lRing1
              {
                OFFSET 8.82822 0.546677 1.51678
                CHANNELS 3 Zrotation Xrotation Yrotation
                JOINT lRing2
                {
                  OFFSET 2.60934 -0.819778 -0.0198488
                  CHANNELS 3 Zrotation Xrotation Yrotation
                  End Site
                  {
                    OFFSET 2.33842 -0.294052 0.168128
                  }
                }
              }
              JOINT lPinky1
              {
                OFFSET 8.27202 -0.0477905 -0.4584
                CHANNELS 3 Zrotation Xrotation Yrotation
                JOINT lPinky2
                {
                  OFFSET 1.82734 -0.647385 -0.700984
                  CHANNELS 3 Zrotation Xrotation Yrotation
                  End Site
                  {
                    OFFSET 1.69225 -0.51767 -0.607171
                  }
                }
              }
            }
          }
        }
      }
    }
  }
  JOINT rButtock
  {
    OFFSET -8.77824 4.35084 1.2192
    CHANNELS 3 Zrotation Xrotation Yrotation
    JOINT rThigh
    {
      OFFSET 0 -1.70687 -2.19456
      CHANNELS 3 Zrotation Xrotation Yrotation
      JOINT rShin
      {
        OFFSET 0 -36.8199 0.73152
        CHANNELS 3 Zrotation Xrotation Yrotation
        JOINT rFoot
        {
          OFFSET 0.73152 -45.1104 -5.12064
          CHANNELS 3 Zrotation Xrotation Yrotation
          End Site
          {
            OFFSET -1.1221 -3.69964 12.103
          }
        }
      }
    }
  }
  JOINT lButtock
  {
    OFFSET 8.77824 4.35084 1.2192
    CHANNELS 3 Zrotation Xrotation Yrotation
    JOINT lThigh
    {
      OFFSET 0 -1.70687 -2.19456
      CHANNELS 3 Zrotation Xrotation Yrotation
      JOINT lShin
      {
        OFFSET 0 -36.8199 0.73152
        CHANNELS 3 Zrotation Xrotation Yrotation
        JOINT lFoot
        {
          OFFSET -0.73152 -45.1104 -5.12064
          CHANNELS 3 Zrotation Xrotation Yrotation
          End Site
          {
            OFFSET 1.1221 -3.69964 12.103
          }
        }
      }
    }
  }
}
MOTION
Frames:	5
Frame Time:	0.00833333
-11.0105 85.1388 220.582 0.0 0.0 0.0 0.410591 -0.00336426 0.0117807 0.113459 -0.00539524 0.0196594 1.07214e-15 -1.59028e-15 -6.83322e-17 3.2582e-15 3.18055e-15 -2.00338e-16 -0.0 0.0 0.0 -0.0 0.0 0.0 5.45423e-16 1.28123e-17 9.93923e-17 1.38862e-14 2.36057e-16 0.0 1.98586e-13 -4.8901e-14 -3.18055e-14 2.22076e-12 9.98396e-14 -1.46306e-13 5.24721e-12 1.1004e-13 -3.72125e-13 9.0622e-12 1.87653e-13 -6.42472e-13 5.25229e-12 1.11717e-13 -3.72125e-13 7.73091 5.47488 0.417314 5.24936e-12 1.10624e-13 -3.68944e-13 2.90554 0.965183 0.102902 5.25651e-12 1.10425e-13 -3.70535e-13 10.2786 0.731801 0.0259123 5.24633e-12 1.11319e-13 -3.68944e-13 2.22167 -0.733487 -0.20892 5.47928e-16 1.28123e-17 -1.98785e-16 8.78011e-15 1.2424e-16 -1.39149e-15 1.93268e-13 6.63941e-14 -6.36111e-15 2.23203e-12 -1.31943e-14 -1.62208e-13 5.26242e-12 1.15228e-13 -3.72125e-13 9.08327e-12 1.94014e-13 -6.40087e-13 5.25666e-12 1.18078e-13 -3.59403e-13 -7.73091 5.47488 -0.417314 5.26198e-12 1.15593e-13 -3.72125e-13 -2.90554 0.965183 -0.102902 5.25412e-12 1.15891e-13 -3.70535e-13 -10.2786 0.731801 -0.0259123 5.2672e-12 1.15295e-13 -3.81667e-13 -2.22167 -0.733487 0.20892 -2.03217e-16 0.0 -3.88251e-19 0.770585 -4.17183 -0.0656809 -0.00265473 2.00555 -0.018269 -0.461809 2.16687 0.0960981 2.03217e-16 0.0 3.88251e-19 -0.143254 -2.55995 0.0260689 0.00716335 -0.914093 0.0621731 0.453794 3.47458 -0.121228
-10.8812 83.5054 215.177 177.316 -1.9254 -151.759 -1.15087 -9.09935 -0.914495 0.82683 3.94567 -0.373896 0.596951 3.87366 -0.818486 0.411199 -5.2349 -1.79225 -0.0 0.0 0.0 -0.0 0.0 0.0 1.77508e-14 9.64568e-14 2.5776e-15 22.913 1.51951 -0.995149 -4.76347 -2.28483 7.30476 -2.14533e-07 -0.0201767 -0.00283565 -3.22363e-10 9.93388e-10 -1.13207e-09 -5.59063e-10 1.71792e-09 -1.95787e-09 -3.22357e-10 9.93389e-10 -1.13207e-09 7.73091 5.47488 0.417314 -3.22361e-10 9.93388e-10 -1.13207e-09 2.90554 0.965183 0.102902 -3.22352e-10 9.93388e-10 -1.13207e-09 10.2786 0.731801 0.0259123 -3.22364e-10 9.93388e-10 -1.13207e-09 2.22167 -0.733487 -0.20892 1.77451e-14 9.64574e-14 2.24992e-15 -21.0271 6.11875 -0.743726 3.51491 -1.47867 -5.61174 -0.00289613 1.19445 -0.167737 -5.74583e-10 6.43555e-10 1.35213e-09 -9.87057e-10 1.11696e-09 2.34085e-09 -5.74589e-10 6.43557e-10 1.35214e-09 -7.73091 5.47488 -0.417314 -5.74582e-10 6.43557e-10 1.35213e-09 -2.90554 0.965183 -0.102902 -5.7459e-10 6.43556e-10 1.35213e-09 -10.2786 0.731801 -0.0259123 -5.74578e-10 6.43556e-10 1.35212e-09 -2.22167 -0.733487 0.20892 -2.03217e-16 0.0 -3.88251e-19 0.721694 -10.5828 1.51983 0.00107027 3.23869 0.0243968 -0.619053 -2.5076 -1.94339 2.03217e-16 0.0 3.88251e-19 -0.195091 -9.25369 -2.53505 0.00531517 1.39542 0.0189729 0.516879 1.10014 1.29903
-10.8781 83.506 215.168 177.332 -1.9059 -151.802 -3.13738 -18.7073 -1.97443 1.64172 8.12201 -0.796263 1.34788 7.96966 -1.69121 0.480239 -10.7617 -3.74574 -0.0 0.0 0.0 -0.0 0.0 0.0 3.7817e-14 2.06045e-13 7.24632e-15 47.192 3.13376 -2.04965 -9.17394 -4.5786 15.0682 -3.37383e-06 -0.0441164 -0.00620016 -7.09843e-10 2.1341e-09 -2.40074e-09 -1.2309e-09 3.69064e-09 -4.1519e-09 -7.09836e-10 2.1341e-09 -2.40075e-09 7.73091 5.47488 0.417314 -7.09842e-10 2.1341e-09 -2.40074e-09 2.90554 0.965183 0.102902 -7.09831e-10 2.1341e-09 -2.40074e-09 10.2786 0.731801 0.0259123 -7.09845e-10 2.1341e-09 -2.40074e-09 2.22167 -0.733487 -0.20892 3.78044e-14 2.06046e-13 6.88603e-15 -43.0811 12.5801 -1.5576 6.91929 -2.99576 -11.5592 0.00164912 2.4525 -0.344654 -1.2442e-09 1.35447e-09 2.86374e-09 -2.13762e-09 2.35093e-09 4.95786e-09 -1.24421e-09 1.35447e-09 2.86375e-09 -7.73091 5.47488 -0.417314 -1.2442e-09 1.35447e-09 2.86374e-09 -2.90554 0.965183 -0.102902 -1.24421e-09 1.35447e-09 2.86374e-09 -10.2786 0.731801 -0.0259123 -1.2442e-09 1.35447e-09 2.86373e-09 -2.22167 -0.733487 0.20892 -2.03217e-16 0.0 -3.88251e-19 1.07332 -17.3415 3.29662 0.00301474 4.54399 0.0697004 -1.15032 -7.4376 -4.13387 2.03217e-16 0.0 3.88251e-19 -0.924422 -16.2805 -5.39091 0.00717701 3.83752 -0.0267696 0.711607 -1.40677 2.80113
-10.8863 83.5074 215.154 177.297 -1.9015 -151.868 -5.24911 -27.2611 -3.07426 2.41938 11.8456 -1.18355 2.12866 11.6114 -2.50106 0.220589 -15.642 -5.56087 -0.0 0.0 0.0 -0.0 0.0 0.0 5.21616e-14 2.89345e-13 7.53402e-15 68.8978 4.55302 -2.99385 -12.5808 -6.4098 22.0417 -6.63506e-06 -0.0605301 -0.00850696 -9.77582e-10 2.97994e-09 -3.39547e-09 -1.69531e-09 5.15337e-09 -5.87232e-09 -9.77575e-10 2.97994e-09 -3.39547e-09 7.73091 5.47488 0.417314 -9.77582e-10 2.97994e-09 -3.39546e-09 2.90554 0.965183 0.102902 -9.77569e-10 2.97994e-09 -3.39547e-09 10.2786 0.731801 0.0259123 -9.77585e-10 2.97994e-09 -3.39546e-09 2.22167 -0.733487 -0.20892 5.21393e-14 2.89347e-13 7.14732e-15 -62.5832 18.3435 -2.33729 9.68764 -4.26608 -16.8778 0.0123273 3.58322 -0.504088 -1.73428e-09 1.93044e-09 4.05712e-09 -2.97934e-09 3.35049e-09 7.02382e-09 -1.73428e-09 1.93044e-09 4.05714e-09 -7.73091 5.47488 -0.417314 -1.73427e-09 1.93044e-09 4.05712e-09 -2.90554 0.965183 -0.102902 -1.73428e-09 1.93044e-09 4.05712e-09 -10.2786 0.731801 -0.0259123 -1.73427e-09 1.93044e-09 4.05712e-09 -2.22167 -0.733487 0.20892 -2.03217e-16 0.0 -3.88251e-19 1.77151 -23.3353 5.02489 0.00298589 5.70495 0.110135 -1.94672 -11.7946 -6.14692 2.03217e-16 0.0 3.88251e-19 -2.21708 -22.4601 -8.18266 0.0120928 6.01443 -0.0678019 0.996187 -3.63836 4.14676
-10.8833 83.5079 215.164 177.31 -1.9081 -151.822 -6.95667 -33.2081 -3.98493 2.98574 14.4394 -1.46161 2.74641 14.1263 -3.11076 -0.123758 -18.9671 -6.85135 -0.0 0.0 0.0 -0.0 0.0 0.0 5.22022e-14 3.06922e-13 -3.13086e-15 84.0573 5.49016 -3.65406 -14.6729 -7.51046 26.918 -4.14453e-06 -0.0581287 -0.00816947 -9.45969e-10 3.08863e-09 -3.70531e-09 -1.64117e-09 5.34117e-09 -6.40869e-09 -9.45962e-10 3.08863e-09 -3.70531e-09 7.73091 5.47488 0.417314 -9.45969e-10 3.08863e-09 -3.7053e-09 2.90554 0.965183 0.102902 -9.45956e-10 3.08863e-09 -3.70531e-09 10.2786 0.731801 0.0259123 -9.45973e-10 3.08863e-09 -3.7053e-09 2.22167 -0.733487 -0.20892 5.21632e-14 3.06924e-13 -3.52843e-15 -76.0627 22.3743 -2.9315 11.4674 -5.08205 -20.5835 0.0237569 4.39571 -0.619004 -1.77548e-09 2.16903e-09 4.45494e-09 -3.04897e-09 3.76402e-09 7.71215e-09 -1.77548e-09 2.16903e-09 4.45496e-09 -7.73091 5.47488 -0.417314 -1.77547e-09 2.16904e-09 4.45494e-09 -2.90554 0.965183 -0.102902 -1.77548e-09 2.16903e-09 4.45494e-09 -10.2786 0.731801 -0.0259123 -1.77547e-09 2.16904e-09 4.45494e-09 -2.22167 -0.733487 0.20892 -2.03217e-16 0.0 -3.88251e-19 2.49406 -27.4819 6.33021 0.0019643 6.50505 0.138047 -2.68091 -14.7811 -7.58708 2.03217e-16 0.0 3.88251e-19 -3.52304 -26.6906 -10.3334 0.0172339 7.52838 -0.0965863 1.25631 -5.19327 5.08894
